<!DOCTYPE svg PUBLIC "-//W3C//DTD SVG 20010904//EN" "http://www.w3.org/TR/2001/REC-SVG-20010904/DTD/svg10.dtd">
<svg version="1.0" xmlns="http://www.w3.org/2000/svg" width="1200px" height="1200px" viewBox="0 0 12000 12000" preserveAspectRatio="xMidYMid meet">
<g id="layer101" fill="#202731" stroke="none">
 <path d="M0 6000 l0 -6000 6000 0 6000 0 0 6000 0 6000 -6000 0 -6000 0 0 -6000z"/>
 </g>
<g id="layer102" fill="#e1e0e1" stroke="none">
 <path d="M4047 10599 c-87 -20 -155 -75 -198 -159 -32 -63 -33 -186 -1 -247 58 -110 150 -168 267 -167 71 0 117 16 187 66 l27 18 3 -37 c3 -36 5 -38 38 -38 l35 0 3 278 2 277 -39 0 c-38 0 -40 -1 -43 -35 l-3 -35 -48 34 c-69 49 -147 65 -230 45z m146 -78 c38 -15 96 -70 118 -112 23 -47 25 -125 3 -177 -66 -160 -284 -183 -380 -40 -54 80 -54 166 0 246 41 61 101 92 177 92 32 0 69 -4 82 -9z"/>
 <path d="M5563 10592 c-100 -36 -165 -108 -189 -209 -32 -134 32 -265 160 -330 73 -37 173 -36 249 1 130 63 195 213 152 351 -22 68 -87 144 -149 174 -63 31 -158 36 -223 13z m192 -79 c77 -39 119 -108 120 -198 0 -74 -33 -137 -96 -180 -56 -40 -156 -47 -215 -17 -149 77 -167 264 -36 376 51 44 159 53 227 19z"/>
 <path d="M6805 10592 c-251 -87 -274 -423 -37 -539 46 -22 70 -27 127 -27 71 0 117 16 187 65 14 11 29 19 32 19 3 0 6 -90 6 -200 l0 -200 35 0 35 0 0 440 0 440 -35 0 c-33 0 -35 -2 -35 -35 0 -19 -2 -35 -5 -35 -3 0 -24 14 -47 30 -47 34 -124 60 -177 60 -20 -1 -59 -8 -86 -18z m195 -86 c68 -34 103 -91 108 -175 5 -81 -15 -128 -76 -183 -75 -68 -192 -69 -275 -2 -53 41 -77 96 -77 175 0 55 5 72 29 110 64 101 179 131 291 75z"/>
 <path d="M7985 10596 c-95 -30 -149 -78 -191 -170 -23 -50 -26 -68 -22 -125 8 -108 68 -200 162 -248 72 -37 180 -37 251 -1 28 15 60 36 73 48 l22 21 0 -46 0 -46 38 3 37 3 3 278 2 277 -39 0 c-38 0 -40 -1 -43 -35 l-3 -35 -48 34 c-73 52 -162 67 -242 42z m158 -75 c14 -5 42 -25 62 -43 152 -133 58 -380 -145 -380 -125 0 -214 90 -214 217 -1 79 31 138 98 183 42 28 57 32 111 32 35 0 75 -4 88 -9z"/>
 <path d="M3010 10150 l0 -440 38 0 39 0 37 93 c147 359 250 589 259 576 5 -8 71 -161 146 -339 l137 -325 42 -3 42 -3 0 440 0 441 -40 0 -40 0 0 -330 c0 -181 -4 -330 -8 -330 -5 0 -28 46 -52 103 -24 56 -75 179 -115 272 l-72 170 -45 3 -46 3 -117 -275 c-64 -152 -121 -276 -126 -276 -5 0 -9 142 -9 330 l0 330 -35 0 -35 0 0 -440z"/>
 <path d="M4480 10310 l0 -280 35 0 c34 0 35 1 35 38 0 49 7 56 34 31 29 -29 104 -65 149 -73 l37 -7 0 41 c0 36 -2 40 -25 40 -34 0 -94 31 -126 67 -56 59 -63 86 -67 261 l-4 162 -34 0 -34 0 0 -280z"/>
 <path d="M4840 10150 l0 -440 40 0 40 0 2 257 3 256 107 -96 c102 -93 109 -97 152 -97 26 0 46 4 46 8 0 5 -56 59 -125 121 l-126 113 63 69 c35 38 101 109 147 159 l83 90 -49 0 -49 0 -124 -135 -125 -136 -3 136 -3 135 -39 0 -40 0 0 -440z"/>
 <path d="M6458 10150 l2 -440 35 0 35 0 0 440 0 440 -37 0 -38 0 3 -440z"/>
 <path d="M7260 10555 c0 -36 15 -56 278 -365 l64 -75 -172 -3 -171 -2 3 -38 3 -37 218 -3 217 -2 0 42 c-1 41 -9 53 -165 237 -91 106 -165 197 -165 202 0 5 74 9 165 9 l165 0 0 35 0 35 -220 0 -220 0 0 -35z"/>
 <path d="M8430 10310 l0 -280 35 0 c32 0 35 2 35 30 0 17 2 30 5 30 3 0 22 -11 43 -25 133 -87 315 -30 378 120 10 26 14 80 14 220 l0 185 -35 0 -35 0 0 -174 c0 -186 -5 -214 -48 -259 -39 -42 -79 -59 -133 -59 -63 0 -116 28 -154 81 l-30 43 -3 184 -4 184 -34 0 -34 0 0 -280z"/>
 <path d="M5715 9223 c-279 -34 -368 -50 -553 -98 -528 -139 -1010 -412 -1412 -802 -540 -522 -863 -1167 -966 -1928 -25 -183 -25 -609 -1 -790 66 -482 199 -870 437 -1269 153 -257 383 -537 602 -734 457 -410 982 -673 1573 -786 208 -40 337 -50 605 -50 290 0 411 12 668 65 1181 244 2150 1164 2457 2331 75 285 96 444 102 768 5 284 -6 439 -48 665 -121 645 -427 1223 -894 1690 -528 528 -1189 845 -1935 930 -123 14 -545 19 -635 8z m700 -213 c680 -96 1282 -401 1761 -892 458 -470 738 -1043 835 -1708 30 -202 33 -606 6 -795 -102 -711 -393 -1296 -887 -1784 -503 -496 -1139 -793 -1847 -862 -176 -17 -584 -6 -746 20 -542 89 -1020 299 -1442 636 -128 102 -368 342 -470 470 -337 422 -547 900 -636 1442 -26 162 -37 570 -20 746 77 787 439 1490 1036 2012 489 428 1129 693 1785 739 139 10 480 -3 625 -24z"/>
 <path d="M4467 7054 c-4 -4 -7 -511 -7 -1128 0 -690 4 -1116 9 -1110 8 8 90 255 287 867 l54 168 -2 602 -3 602 -166 3 c-91 1 -168 -1 -172 -4z"/>
 <path d="M5341 7033 c-10 -22 -560 -1742 -671 -2098 -15 -49 -56 -178 -90 -287 -35 -108 -60 -203 -57 -212 5 -14 28 -16 145 -16 100 0 142 4 150 13 9 10 135 402 323 1002 28 88 66 207 84 265 295 924 425 1342 420 1351 -4 5 -70 9 -149 9 l-143 0 -12 -27z"/>
 <path d="M6127 7054 c-4 -4 -7 -391 -7 -861 0 -498 -4 -853 -9 -853 -5 0 -21 37 -35 83 -66 204 -264 809 -319 977 -34 102 -66 184 -72 183 -16 -3 -145 -404 -138 -433 5 -26 29 -100 335 -1060 99 -311 186 -585 193 -609 8 -24 20 -48 27 -52 7 -5 88 -9 179 -9 128 0 169 3 178 14 8 10 10 362 9 1317 l-3 1304 -166 3 c-91 1 -168 -1 -172 -4z"/>
 <path d="M6847 7053 c-4 -3 -7 -66 -7 -139 0 -122 2 -134 19 -144 11 -5 69 -10 130 -10 l111 0 0 -1020 0 -1019 -127 -3 -128 -3 -3 -134 c-2 -90 1 -138 9 -147 9 -12 84 -14 423 -14 226 0 417 4 424 8 9 7 12 43 10 148 l-3 139 -127 3 -128 3 0 1019 0 1020 119 0 c89 0 121 3 130 14 8 9 11 57 9 147 l-3 134 -426 3 c-234 1 -429 -1 -432 -5z"/>
 </g>
<g id="layer103" fill="#e0e1e1" stroke="none">
 <path d="M4047 10599 c-87 -20 -155 -75 -198 -159 -32 -63 -33 -186 -1 -247 58 -110 150 -168 267 -167 71 0 117 16 187 66 l27 18 3 -37 c3 -36 5 -38 38 -38 l35 0 3 278 2 277 -39 0 c-38 0 -40 -1 -43 -35 l-3 -35 -48 34 c-69 49 -147 65 -230 45z m146 -78 c38 -15 96 -70 118 -112 23 -47 25 -125 3 -177 -66 -160 -284 -183 -380 -40 -54 80 -54 166 0 246 41 61 101 92 177 92 32 0 69 -4 82 -9z"/>
 <path d="M5563 10592 c-100 -36 -165 -108 -189 -209 -32 -134 32 -265 160 -330 73 -37 173 -36 249 1 130 63 195 213 152 351 -22 68 -87 144 -149 174 -63 31 -158 36 -223 13z m192 -79 c77 -39 119 -108 120 -198 0 -74 -33 -137 -96 -180 -56 -40 -156 -47 -215 -17 -149 77 -167 264 -36 376 51 44 159 53 227 19z"/>
 <path d="M6805 10592 c-251 -87 -274 -423 -37 -539 46 -22 70 -27 127 -27 71 0 117 16 187 65 14 11 29 19 32 19 3 0 6 -90 6 -200 l0 -200 35 0 35 0 0 440 0 440 -35 0 c-33 0 -35 -2 -35 -35 0 -19 -2 -35 -5 -35 -3 0 -24 14 -47 30 -47 34 -124 60 -177 60 -20 -1 -59 -8 -86 -18z m195 -86 c68 -34 103 -91 108 -175 5 -81 -15 -128 -76 -183 -75 -68 -192 -69 -275 -2 -53 41 -77 96 -77 175 0 55 5 72 29 110 64 101 179 131 291 75z"/>
 <path d="M7985 10596 c-95 -30 -149 -78 -191 -170 -46 -101 -24 -218 58 -311 62 -71 159 -100 273 -83 37 6 102 39 133 68 l22 21 0 -46 0 -46 38 3 37 3 3 278 2 277 -39 0 c-38 0 -40 -1 -43 -35 l-3 -35 -48 34 c-73 52 -162 67 -242 42z m159 -76 c47 -17 104 -79 125 -134 51 -138 -49 -280 -205 -289 -121 -7 -218 89 -218 218 -1 79 31 138 98 183 42 28 57 32 111 32 35 0 75 -4 89 -10z"/>
 <path d="M3010 10150 l0 -440 38 0 39 0 37 93 c121 295 250 587 256 580 5 -4 66 -145 136 -313 70 -168 133 -312 141 -321 7 -8 13 -21 13 -27 0 -7 16 -12 40 -12 l40 0 0 440 0 440 -40 0 -40 0 0 -330 c0 -181 -4 -330 -8 -330 -5 0 -28 46 -52 103 -24 56 -75 179 -115 272 l-72 170 -45 3 -46 3 -117 -275 c-64 -152 -121 -276 -126 -276 -5 0 -9 142 -9 330 l0 330 -35 0 -35 0 0 -440z"/>
 <path d="M4480 10310 l0 -280 35 0 c34 0 35 1 35 38 0 49 7 56 34 31 29 -29 104 -65 149 -73 l37 -7 0 41 c0 36 -2 40 -25 40 -34 0 -94 31 -126 67 -56 59 -63 86 -67 261 l-4 162 -34 0 -34 0 0 -280z"/>
 <path d="M4840 10150 l0 -440 40 0 40 0 2 257 3 256 107 -96 c102 -93 109 -97 152 -97 26 0 46 4 46 9 0 5 -15 22 -34 38 -19 15 -75 66 -125 113 l-91 85 144 155 145 155 -46 3 -46 3 -92 -98 c-50 -54 -108 -116 -128 -138 l-36 -40 -1 138 0 137 -40 0 -40 0 0 -440z"/>
 <path d="M6458 10150 l2 -440 35 0 35 0 0 440 0 440 -37 0 -38 0 3 -440z"/>
 <path d="M7260 10555 c0 -36 15 -56 278 -365 l64 -75 -172 -3 -171 -2 3 -38 3 -37 218 -3 217 -2 0 42 c-1 41 -9 53 -165 237 -91 106 -165 197 -165 202 0 5 74 9 165 9 l165 0 0 35 0 35 -220 0 -220 0 0 -35z"/>
 <path d="M8430 10310 l0 -280 35 0 c32 0 35 2 35 30 0 17 2 30 5 30 3 0 22 -11 43 -25 133 -87 315 -30 378 120 10 26 14 80 14 220 l0 185 -35 0 -35 0 0 -174 c0 -186 -5 -214 -48 -259 -39 -42 -79 -59 -133 -59 -63 0 -116 28 -154 81 l-30 43 -3 184 -4 184 -34 0 -34 0 0 -280z"/>
 <path d="M5720 9224 c-14 -2 -65 -9 -115 -15 -131 -15 -268 -40 -282 -51 -7 -5 -16 -7 -21 -4 -5 3 -69 -10 -141 -30 -423 -111 -837 -320 -1186 -599 -190 -151 -595 -581 -595 -631 0 -7 -6 -17 -13 -21 -36 -23 -175 -247 -266 -431 -163 -327 -265 -663 -317 -1047 -25 -183 -25 -609 -1 -790 66 -482 199 -870 437 -1269 153 -257 383 -537 602 -734 513 -461 1088 -724 1783 -819 181 -24 607 -24 790 1 384 52 720 154 1047 317 184 91 408 230 431 266 4 7 14 13 21 13 20 0 217 163 343 283 369 355 634 763 808 1243 50 138 117 382 109 396 -3 5 -1 14 4 21 9 11 21 73 53 272 6 39 13 188 16 332 6 271 -9 479 -43 633 -8 36 -16 81 -19 101 -14 120 -121 457 -200 634 -75 168 -238 465 -256 465 -4 0 -17 19 -28 43 -27 55 -166 234 -292 374 -159 177 -478 451 -586 504 -24 11 -43 24 -43 28 0 18 -297 181 -465 256 -177 79 -514 186 -634 200 -20 3 -65 11 -101 19 -136 30 -343 46 -581 45 -129 -1 -245 -3 -259 -5z m695 -214 c680 -96 1282 -401 1761 -892 458 -470 738 -1043 835 -1708 30 -202 33 -606 6 -795 -30 -211 -64 -362 -114 -519 -14 -44 -27 -87 -28 -95 -1 -9 -9 -34 -19 -56 -10 -22 -36 -83 -58 -135 -183 -433 -476 -830 -840 -1138 -43 -36 -78 -69 -78 -74 0 -4 -5 -8 -10 -8 -6 0 -52 -29 -102 -65 -439 -316 -939 -503 -1485 -556 -176 -17 -584 -6 -746 20 -542 89 -1020 299 -1442 636 -128 102 -368 342 -470 470 -337 422 -547 900 -636 1442 -26 162 -37 570 -20 746 53 546 240 1046 556 1485 36 50 65 96 65 102 0 5 4 10 8 10 5 0 38 35 74 78 308 364 705 657 1138 840 52 22 113 48 135 58 22 10 47 18 56 19 8 1 44 11 80 23 210 68 482 120 709 136 139 10 480 -3 625 -24z"/>
 <path d="M4467 7054 c-10 -10 -9 -2234 1 -2234 5 0 34 78 64 173 31 94 105 321 165 502 l108 330 0 615 0 615 -166 3 c-91 1 -168 -1 -172 -4z"/>
 <path d="M5341 7033 c-10 -22 -559 -1739 -671 -2098 -15 -49 -56 -178 -90 -287 -35 -108 -60 -203 -57 -212 5 -14 28 -16 145 -16 100 0 142 4 150 13 9 10 135 402 323 1002 28 88 66 207 84 265 19 58 54 168 78 245 166 522 310 982 311 995 1 8 7 24 13 36 6 11 13 33 15 50 l3 29 -146 3 -146 3 -12 -28z"/>
 <path d="M6127 7054 c-4 -4 -7 -381 -7 -838 0 -457 0 -841 0 -853 0 -46 -19 -21 -44 60 -15 45 -62 190 -105 322 -44 132 -116 355 -161 495 -45 140 -88 269 -95 285 -7 17 -16 39 -19 49 -4 11 -10 16 -15 10 -20 -21 -140 -410 -134 -434 6 -26 41 -138 335 -1060 99 -311 186 -585 193 -609 8 -24 20 -48 27 -52 7 -5 88 -9 179 -9 128 0 169 3 178 14 8 10 10 362 9 1317 l-3 1304 -166 3 c-91 1 -168 -1 -172 -4z"/>
 <path d="M6847 7053 c-4 -3 -7 -66 -7 -139 0 -122 2 -134 19 -144 11 -5 69 -10 130 -10 l111 0 0 -1020 0 -1019 -127 -3 -128 -3 -3 -134 c-2 -90 1 -138 9 -147 9 -12 84 -14 423 -14 226 0 417 4 424 8 9 7 12 43 10 148 l-3 139 -127 3 -128 3 0 1019 0 1020 119 0 c89 0 121 3 130 14 8 9 11 57 9 147 l-3 134 -426 3 c-234 1 -429 -1 -432 -5z"/>
 </g>
<g id="layer104" fill="#eeeeee" stroke="none">
 <path d="M4047 10599 c-21 -5 -52 -16 -70 -25 -37 -19 -97 -73 -97 -88 0 -5 -11 -26 -25 -46 -30 -43 -45 -150 -26 -174 7 -8 10 -20 6 -27 -4 -6 2 -24 14 -40 11 -15 21 -33 21 -38 0 -16 60 -81 75 -81 7 0 24 -10 39 -21 15 -12 40 -22 56 -23 16 -1 32 -5 36 -9 11 -11 72 -8 79 4 4 6 14 8 22 5 20 -8 92 30 124 65 14 16 28 29 31 29 2 0 4 -21 4 -47 l-1 -48 35 0 35 0 3 278 2 277 -41 0 -42 0 6 -47 c4 -37 3 -44 -6 -32 -19 24 -99 79 -108 73 -4 -2 -25 2 -45 11 -40 17 -70 18 -127 4z m155 -77 c39 -21 87 -71 111 -117 15 -31 26 -132 16 -150 -4 -5 -9 -21 -12 -35 -4 -14 -32 -46 -65 -72 -55 -44 -62 -47 -130 -51 -40 -2 -75 -1 -78 4 -3 5 -13 9 -22 9 -9 0 -37 18 -61 40 -35 31 -46 50 -58 97 -17 68 -17 64 -2 130 11 51 61 123 86 123 6 0 16 6 22 14 7 8 36 14 78 15 37 1 69 4 72 6 6 6 2 8 43 -13z"/>
 <path d="M5561 10591 c-30 -11 -58 -26 -63 -35 -5 -9 -15 -16 -23 -16 -14 0 -65 -59 -65 -75 0 -5 -6 -16 -14 -24 -18 -21 -38 -115 -30 -149 14 -72 27 -112 36 -112 5 0 11 -6 14 -14 10 -25 80 -94 115 -112 57 -30 186 -35 225 -9 13 8 29 15 36 15 28 0 88 63 118 123 60 119 48 233 -36 326 -35 39 -58 53 -118 75 -87 31 -122 32 -195 7z m184 -66 c27 -11 87 -64 102 -89 28 -48 32 -69 28 -136 -4 -79 -27 -116 -100 -169 -52 -37 -150 -45 -205 -17 -89 46 -146 143 -130 221 18 90 23 104 49 132 24 27 84 56 136 66 29 6 97 1 120 -8z"/>
 <path d="M6802 10592 c-29 -11 -70 -33 -90 -49 -42 -34 -92 -108 -96 -144 -1 -13 -6 -32 -10 -42 -8 -16 -6 -34 9 -122 8 -44 57 -118 89 -133 15 -8 30 -20 33 -28 3 -8 13 -14 22 -14 9 0 25 -7 35 -15 11 -8 28 -13 37 -10 10 3 20 1 24 -5 8 -13 72 -13 80 1 4 6 13 8 20 5 15 -5 90 28 100 45 7 10 39 25 60 28 13 1 12 11 14 -209 l1 -190 30 0 30 0 0 440 0 440 -34 0 c-33 0 -34 -1 -31 -34 4 -46 -9 -66 -25 -37 -6 13 -26 29 -43 38 -18 8 -45 21 -61 30 -45 24 -133 26 -194 5z m170 -64 c9 0 22 -6 29 -14 6 -8 17 -14 24 -14 17 0 41 -29 68 -82 21 -41 22 -54 16 -123 -6 -57 -13 -83 -28 -99 -12 -12 -21 -27 -21 -32 0 -5 -10 -15 -22 -21 -119 -62 -168 -62 -284 -1 -11 6 -34 34 -50 62 -24 44 -28 60 -25 116 2 52 9 76 34 119 18 29 39 56 47 59 8 3 22 11 30 18 18 15 81 23 130 16 19 -3 43 -5 52 -4z"/>
 <path d="M7985 10596 c-22 -7 -51 -18 -65 -25 -35 -19 -100 -82 -100 -99 0 -8 -9 -25 -19 -39 -11 -13 -18 -30 -15 -38 3 -7 1 -16 -5 -20 -6 -3 -11 -30 -11 -60 0 -30 5 -57 11 -60 6 -4 8 -13 5 -20 -3 -8 3 -24 13 -37 10 -13 21 -32 25 -44 7 -22 42 -59 74 -78 73 -42 87 -47 140 -48 107 -1 167 20 210 73 13 16 27 29 31 29 5 0 6 -23 3 -51 l-5 -50 39 3 39 3 3 278 2 277 -41 0 -42 0 5 -45 c6 -52 2 -50 -80 22 -13 13 -28 20 -33 17 -4 -2 -25 2 -45 11 -43 18 -84 18 -139 1z m167 -74 c44 -23 131 -119 124 -138 -3 -7 -1 -16 4 -19 4 -3 8 -25 8 -50 0 -25 -4 -47 -8 -50 -5 -3 -7 -12 -4 -19 6 -16 -78 -115 -113 -133 -36 -18 -156 -23 -178 -7 -10 8 -26 14 -34 14 -46 0 -135 177 -113 224 5 12 18 42 29 67 12 32 34 58 65 82 41 32 55 36 115 40 37 2 68 4 68 5 1 1 17 -6 37 -16z"/>
 <path d="M3010 10150 l0 -440 33 0 c31 0 35 4 57 58 12 31 29 64 36 73 8 8 14 23 14 31 0 9 6 29 14 45 8 15 26 51 40 79 14 28 23 54 20 57 -4 3 3 18 15 33 11 14 18 31 15 36 -3 5 2 21 12 36 23 34 104 222 104 242 0 8 13 -14 28 -50 16 -36 33 -74 38 -85 38 -74 44 -89 44 -105 0 -9 7 -23 15 -30 8 -7 15 -18 15 -24 0 -7 9 -29 20 -51 11 -22 20 -45 20 -53 0 -17 74 -190 104 -245 20 -36 29 -42 60 -45 l36 -3 0 440 0 441 -40 0 -41 0 3 -335 c2 -184 0 -335 -4 -335 -6 0 -24 34 -98 195 -8 17 -15 35 -15 40 0 6 -8 21 -17 35 -9 14 -21 43 -27 65 -6 22 -28 81 -49 130 l-39 90 -45 3 -45 3 -37 -85 c-20 -46 -36 -89 -36 -95 0 -12 -5 -22 -34 -81 -34 -66 -94 -209 -90 -213 2 -2 -2 -17 -11 -33 -8 -16 -15 -35 -15 -42 0 -8 -6 -12 -12 -10 -10 4 -14 82 -16 336 l-2 332 -35 0 -35 0 0 -440z"/>
 <path d="M4480 10310 l0 -280 35 0 c34 0 35 1 35 39 0 50 14 59 42 28 30 -31 103 -68 121 -61 8 3 18 1 22 -5 3 -6 13 -11 21 -11 10 0 14 12 14 41 0 38 -2 41 -22 36 -13 -3 -32 1 -42 9 -11 8 -26 14 -33 14 -16 0 -87 69 -104 102 -8 14 -14 86 -17 195 l-5 173 -33 0 -34 0 0 -280z"/>
 <path d="M4840 10150 l0 -440 40 0 41 0 -3 265 c-2 196 0 261 8 250 6 -8 16 -15 21 -15 6 0 27 -20 47 -45 21 -25 42 -45 48 -45 6 0 28 -20 50 -45 37 -42 43 -45 89 -45 27 0 49 4 49 9 0 5 -16 22 -36 38 -19 15 -51 45 -71 66 -20 20 -42 37 -49 37 -7 0 -25 16 -40 35 -14 19 -33 35 -40 35 -19 0 -18 24 1 40 8 7 15 17 15 22 0 6 38 46 85 90 47 44 85 85 85 90 0 6 21 30 48 54 l47 44 -53 0 c-45 0 -55 -3 -59 -19 -3 -11 -14 -21 -24 -24 -11 -3 -18 -9 -17 -14 1 -4 -25 -35 -60 -67 -34 -32 -62 -62 -62 -67 0 -10 -62 -79 -72 -79 -4 0 -8 61 -8 135 l0 135 -40 0 -40 0 0 -440z"/>
 <path d="M6458 10150 l2 -440 35 0 35 0 0 440 0 440 -37 0 -38 0 3 -440z"/>
 <path d="M7260 10554 c0 -27 7 -42 30 -62 17 -15 30 -31 30 -37 0 -6 14 -21 30 -35 17 -14 30 -30 30 -36 0 -7 25 -37 55 -68 30 -30 55 -60 55 -65 0 -6 14 -20 30 -33 17 -12 30 -28 30 -35 0 -7 8 -17 19 -22 10 -6 21 -20 24 -31 5 -20 1 -20 -165 -20 l-169 0 3 -37 3 -38 218 -3 217 -2 0 45 c0 37 -4 47 -25 61 -14 9 -25 22 -25 28 0 7 -27 41 -60 75 -33 35 -60 67 -60 72 0 4 -9 13 -20 19 -11 6 -20 17 -20 25 0 8 -13 24 -30 37 -16 12 -30 27 -30 32 0 6 -13 22 -30 36 -16 14 -30 33 -30 42 0 16 14 18 165 18 l165 0 0 35 0 35 -220 0 -220 0 0 -36z"/>
 <path d="M8430 10309 l0 -280 28 3 c22 2 28 8 30 36 2 17 5 32 7 32 3 0 24 -13 47 -30 53 -37 151 -59 180 -41 10 6 23 9 27 6 22 -13 123 54 145 97 10 18 24 44 32 58 10 19 14 70 14 213 l0 187 -36 0 -35 0 2 -178 c2 -197 0 -205 -65 -274 -27 -29 -43 -38 -70 -39 -20 -1 -51 -2 -68 -3 -38 -2 -105 38 -131 78 -38 57 -47 108 -47 264 l0 152 -30 0 -30 0 0 -281z"/>
 <path d="M5680 9218 c-36 -5 -78 -11 -95 -14 -16 -3 -43 -5 -59 -5 -16 0 -34 -4 -40 -8 -6 -5 -22 -9 -36 -9 -34 -1 -102 -11 -120 -19 -8 -3 -30 -7 -48 -9 -19 -2 -39 -7 -45 -12 -7 -5 -22 -9 -35 -10 -36 -1 -204 -52 -230 -68 -12 -8 -26 -13 -31 -10 -4 3 -17 -1 -27 -9 -10 -8 -29 -15 -41 -15 -12 0 -25 -4 -28 -10 -3 -5 -14 -10 -24 -10 -10 0 -44 -13 -77 -29 -32 -15 -80 -36 -106 -45 -26 -10 -63 -28 -83 -42 -20 -13 -42 -24 -50 -24 -7 0 -27 -11 -43 -25 -17 -14 -35 -25 -42 -25 -15 0 -70 -33 -130 -79 -25 -18 -57 -38 -72 -43 -16 -6 -28 -14 -28 -19 0 -5 -11 -14 -25 -19 -34 -13 -163 -109 -169 -126 -3 -8 -12 -14 -20 -14 -7 0 -21 -11 -30 -25 -9 -14 -23 -25 -30 -25 -8 0 -30 -18 -50 -40 -20 -22 -39 -40 -43 -40 -13 0 -303 -303 -303 -316 0 -7 -9 -18 -20 -24 -11 -6 -20 -17 -20 -24 0 -8 -11 -21 -24 -29 -12 -9 -31 -32 -40 -51 -9 -20 -21 -36 -26 -36 -6 0 -10 -7 -10 -15 0 -7 -6 -18 -14 -22 -18 -10 -128 -176 -151 -228 -10 -22 -27 -48 -37 -58 -10 -10 -21 -30 -24 -45 -4 -15 -17 -40 -29 -57 -13 -16 -29 -48 -36 -70 -7 -22 -22 -51 -31 -64 -10 -13 -26 -49 -34 -80 -9 -31 -25 -70 -35 -87 -11 -17 -19 -40 -19 -50 0 -11 -7 -28 -15 -38 -8 -10 -12 -23 -9 -27 3 -5 -2 -19 -10 -31 -9 -12 -16 -32 -16 -45 0 -12 -4 -25 -10 -28 -5 -3 -10 -18 -10 -33 0 -15 -7 -40 -15 -56 -8 -15 -13 -32 -10 -36 3 -4 -2 -21 -11 -38 -8 -17 -16 -46 -17 -64 -1 -18 -5 -37 -9 -43 -8 -13 -23 -106 -19 -123 1 -8 -2 -19 -7 -25 -5 -7 -13 -41 -17 -77 -5 -36 -10 -78 -12 -95 -10 -85 -16 -228 -16 -380 1 -278 0 -266 29 -450 3 -16 5 -41 5 -55 1 -14 5 -31 11 -37 6 -7 8 -19 5 -27 -5 -13 7 -87 20 -116 4 -8 7 -22 8 -30 1 -8 5 -28 9 -45 4 -16 14 -58 21 -91 8 -34 20 -75 27 -90 6 -16 13 -33 13 -39 4 -28 29 -104 43 -130 9 -16 17 -34 17 -40 1 -16 47 -129 60 -145 6 -8 17 -34 23 -56 7 -23 19 -47 27 -54 8 -7 15 -20 15 -30 0 -10 7 -23 15 -30 8 -7 15 -21 15 -30 0 -10 11 -32 25 -48 14 -17 25 -36 25 -43 1 -8 14 -32 30 -54 16 -22 36 -55 44 -72 19 -41 65 -108 105 -152 17 -19 31 -40 31 -46 0 -6 13 -25 30 -41 16 -16 30 -35 30 -41 0 -7 11 -20 25 -29 14 -9 25 -22 25 -29 0 -6 32 -45 70 -85 39 -40 70 -77 70 -81 0 -5 7 -9 15 -9 8 0 15 -6 15 -13 0 -16 72 -87 88 -87 7 0 12 -7 12 -15 0 -8 4 -15 9 -15 4 0 41 -31 81 -70 40 -38 79 -70 85 -70 7 0 20 -11 29 -25 9 -14 22 -25 29 -25 6 0 25 -14 41 -30 16 -17 35 -30 41 -30 6 0 27 -14 46 -31 44 -40 111 -86 152 -105 17 -8 50 -28 72 -44 22 -16 46 -29 54 -30 7 0 26 -11 43 -25 16 -14 38 -25 48 -25 9 0 23 -7 30 -15 7 -8 20 -15 30 -15 10 0 23 -7 30 -15 7 -8 31 -20 54 -27 22 -6 48 -17 56 -23 16 -13 129 -59 145 -60 6 0 24 -8 40 -17 26 -14 102 -39 130 -43 6 0 23 -7 39 -13 15 -7 56 -19 90 -27 33 -7 75 -17 91 -21 17 -4 37 -8 45 -9 8 -1 22 -4 30 -8 29 -13 103 -25 116 -20 8 3 20 1 27 -5 6 -6 23 -10 37 -11 14 0 39 -2 55 -5 184 -29 172 -28 450 -29 152 0 295 6 380 16 17 2 59 7 95 12 36 4 70 12 77 17 6 5 17 8 25 7 17 -4 110 11 123 19 6 4 25 8 43 9 18 1 47 9 64 17 17 9 34 14 38 11 4 -3 21 2 36 10 16 8 41 15 56 15 15 0 30 4 33 10 3 5 16 10 28 10 13 0 33 7 45 16 12 8 26 13 31 10 4 -3 17 1 27 9 10 8 27 15 38 15 10 0 33 8 50 19 17 10 56 26 87 35 31 8 67 24 80 34 13 9 42 24 64 31 22 7 54 23 70 36 17 12 42 25 57 29 15 3 35 14 45 24 10 10 36 27 58 37 52 23 218 133 228 151 4 8 15 14 22 14 8 0 15 4 15 10 0 5 16 17 36 26 19 9 42 28 51 40 8 13 21 24 29 24 7 0 18 9 24 20 6 11 17 20 24 20 7 0 32 20 55 45 23 25 44 45 47 45 8 0 214 206 214 214 0 3 18 22 40 42 22 20 40 42 40 49 0 7 11 20 25 29 14 9 25 23 25 31 0 8 7 18 15 22 20 12 125 154 125 170 0 8 7 16 15 19 8 3 17 16 21 27 3 12 17 36 30 54 13 17 24 36 24 42 0 5 6 14 13 18 16 10 57 80 57 97 0 8 7 19 16 27 16 13 80 135 104 199 7 19 28 67 46 106 19 39 37 86 41 105 3 19 12 43 20 55 7 11 10 23 7 26 -3 4 1 17 9 30 17 25 67 194 69 230 1 13 5 28 10 35 5 6 10 26 12 45 2 18 6 40 9 48 8 18 18 86 19 120 0 14 4 30 9 36 4 6 8 24 8 40 0 16 2 43 5 59 19 114 24 222 21 450 -2 143 -6 274 -8 290 -2 17 -7 64 -12 105 -4 41 -12 81 -17 87 -6 7 -8 19 -5 27 3 8 1 30 -5 48 -5 18 -11 40 -12 48 -1 9 -5 21 -10 28 -4 6 -4 16 -1 22 7 11 -13 88 -28 107 -5 7 -6 17 -2 22 3 6 -3 31 -15 55 -11 25 -19 49 -19 53 1 4 0 15 -4 23 -3 8 -10 38 -17 65 -6 28 -20 65 -31 83 -10 19 -17 37 -15 41 3 4 -11 38 -30 77 -19 38 -34 76 -34 85 0 9 -9 28 -20 42 -11 14 -20 30 -20 36 0 15 -50 110 -61 117 -5 3 -9 14 -9 24 0 10 -20 48 -45 84 -24 36 -51 80 -59 98 -7 18 -28 48 -45 67 -17 19 -36 47 -43 63 -7 15 -17 28 -21 28 -4 0 -13 14 -19 30 -5 17 -19 35 -29 41 -10 5 -19 15 -19 22 0 7 -18 30 -40 51 -22 22 -40 45 -40 52 0 6 -11 19 -25 28 -14 9 -25 23 -25 31 0 8 -16 26 -34 40 -19 15 -44 42 -56 62 -11 19 -29 37 -40 40 -11 3 -20 12 -20 19 0 8 -6 14 -14 14 -7 0 -16 9 -19 20 -3 11 -21 29 -40 40 -20 12 -47 37 -62 56 -14 18 -32 34 -40 34 -8 0 -22 11 -31 25 -9 14 -22 25 -28 25 -7 0 -30 18 -52 40 -21 22 -44 40 -51 40 -7 0 -17 9 -22 19 -6 10 -24 24 -41 29 -16 6 -30 15 -30 19 0 4 -13 14 -28 21 -16 7 -44 26 -63 43 -19 17 -49 38 -67 45 -18 8 -62 35 -98 59 -36 25 -74 45 -84 45 -10 0 -21 4 -24 9 -7 11 -102 61 -117 61 -6 0 -22 9 -36 20 -14 11 -33 20 -42 20 -9 0 -47 15 -85 34 -39 19 -73 33 -77 30 -4 -2 -22 5 -41 15 -18 11 -55 25 -83 31 -27 7 -57 14 -65 17 -8 4 -19 5 -23 4 -4 0 -28 8 -53 19 -24 12 -49 18 -55 15 -5 -4 -15 -3 -22 2 -19 15 -96 35 -107 28 -6 -3 -16 -3 -22 1 -7 5 -19 9 -28 10 -8 1 -30 7 -48 12 -18 6 -40 8 -48 5 -8 -3 -20 -1 -27 5 -6 5 -46 13 -87 17 -41 5 -88 10 -105 12 -64 8 -583 9 -645 1z m535 -183 c59 -4 126 -11 195 -21 19 -3 49 -6 65 -8 17 -2 37 -6 45 -9 8 -3 31 -8 50 -10 19 -3 71 -14 115 -25 44 -11 83 -19 86 -16 4 2 20 -3 37 -12 17 -8 42 -16 54 -18 13 -1 30 -5 38 -9 27 -12 215 -79 235 -84 11 -3 47 -18 80 -34 33 -16 107 -51 164 -78 57 -28 111 -56 120 -64 24 -20 156 -97 167 -97 5 0 19 -10 30 -23 12 -12 35 -29 50 -37 16 -8 42 -27 57 -42 16 -16 34 -28 42 -28 7 0 19 -10 27 -23 9 -12 28 -29 44 -37 15 -8 43 -32 62 -52 19 -21 38 -38 42 -38 10 0 250 -240 250 -250 0 -4 17 -23 38 -42 20 -19 44 -47 52 -62 8 -16 25 -35 37 -44 13 -8 23 -20 23 -27 0 -8 12 -26 28 -42 15 -15 34 -41 42 -57 8 -15 25 -38 37 -50 13 -11 23 -25 23 -30 0 -11 77 -143 97 -167 8 -9 36 -63 64 -120 27 -57 62 -131 78 -164 16 -33 31 -69 34 -80 5 -20 72 -208 84 -235 4 -8 8 -25 9 -38 2 -12 10 -37 18 -54 9 -17 14 -33 12 -37 -3 -3 5 -42 16 -86 11 -44 22 -96 25 -115 2 -19 7 -42 10 -50 3 -8 7 -28 9 -45 2 -16 5 -46 8 -65 34 -250 35 -490 1 -815 -2 -22 -11 -78 -20 -125 -9 -47 -18 -98 -20 -115 -1 -16 -4 -32 -5 -35 -1 -3 -2 -9 -1 -14 1 -4 -3 -14 -9 -21 -6 -8 -12 -28 -12 -45 -1 -17 -5 -33 -9 -36 -4 -2 -11 -25 -15 -49 -3 -25 -10 -48 -15 -51 -5 -3 -7 -9 -4 -14 3 -5 -1 -20 -10 -34 -9 -13 -17 -35 -19 -48 -1 -12 -12 -45 -24 -71 -12 -27 -25 -61 -28 -75 -11 -45 -52 -139 -79 -178 -14 -20 -25 -44 -25 -52 0 -9 -6 -23 -14 -31 -12 -15 -33 -54 -82 -155 -11 -21 -25 -40 -31 -43 -7 -3 -13 -13 -13 -24 0 -10 -6 -22 -13 -26 -16 -10 -107 -138 -107 -151 0 -5 -11 -21 -25 -36 -14 -15 -25 -30 -25 -34 0 -4 -23 -29 -50 -56 -28 -27 -50 -54 -50 -59 0 -5 -20 -27 -45 -49 -25 -22 -45 -44 -45 -49 0 -12 -148 -159 -160 -159 -5 0 -24 -18 -41 -40 -18 -22 -38 -40 -45 -40 -7 0 -18 -9 -24 -20 -6 -11 -17 -20 -24 -20 -8 0 -21 -11 -30 -25 -9 -14 -22 -25 -30 -25 -7 0 -32 -18 -56 -40 -24 -22 -47 -40 -51 -40 -4 0 -20 -11 -35 -25 -15 -14 -31 -25 -37 -25 -11 0 -152 -85 -182 -110 -11 -9 -50 -31 -86 -48 -37 -17 -70 -35 -74 -41 -3 -6 -13 -11 -22 -11 -9 0 -48 -15 -87 -33 -122 -57 -131 -61 -148 -63 -10 0 -29 -9 -44 -18 -14 -10 -28 -15 -31 -12 -5 5 -56 -12 -120 -40 -17 -8 -40 -14 -51 -14 -12 0 -24 -5 -27 -10 -4 -6 -15 -8 -25 -5 -10 3 -21 1 -25 -5 -3 -5 -19 -10 -35 -10 -16 0 -32 -5 -35 -11 -4 -6 -13 -8 -20 -6 -12 5 -96 -9 -125 -20 -8 -4 -26 -8 -40 -9 -14 -2 -45 -5 -70 -8 -25 -3 -83 -10 -130 -15 -96 -11 -533 -17 -549 -7 -6 4 -30 6 -53 5 -24 0 -63 2 -88 6 -25 3 -52 6 -60 6 -8 1 -26 5 -40 9 -14 5 -51 11 -83 14 -31 3 -66 10 -76 15 -10 6 -34 11 -52 13 -19 1 -39 5 -45 10 -6 4 -24 9 -40 11 -16 2 -42 9 -59 16 -16 7 -39 14 -50 15 -11 1 -32 7 -46 13 -14 6 -45 16 -70 23 -24 7 -56 18 -71 26 -14 8 -33 14 -41 14 -8 0 -41 13 -72 30 -31 16 -65 30 -74 30 -9 0 -32 11 -51 25 -19 14 -41 25 -50 25 -9 0 -31 11 -50 25 -19 14 -40 25 -48 25 -8 0 -34 14 -59 30 -24 17 -46 30 -48 30 -3 0 -26 16 -52 36 -27 21 -63 43 -81 51 -19 8 -44 24 -55 36 -25 26 -93 77 -102 77 -3 0 -25 18 -47 40 -23 22 -47 40 -53 40 -6 0 -21 14 -33 30 -13 17 -26 30 -31 30 -10 0 -261 251 -261 261 0 5 -13 18 -30 31 -17 12 -30 27 -30 33 0 6 -18 30 -40 53 -22 22 -40 44 -40 47 0 9 -51 77 -77 102 -12 11 -28 36 -36 55 -8 18 -30 54 -51 81 -20 26 -36 49 -36 52 0 2 -13 24 -30 48 -16 25 -30 51 -30 59 0 8 -11 29 -25 48 -14 19 -25 41 -25 50 0 9 -11 31 -25 50 -14 19 -25 42 -25 51 0 9 -13 43 -30 74 -16 31 -30 64 -30 72 0 8 -6 27 -14 41 -8 15 -19 47 -26 71 -7 25 -17 56 -23 70 -6 14 -12 35 -13 46 -1 11 -8 34 -15 50 -7 17 -14 43 -16 59 -2 16 -7 34 -11 40 -5 6 -9 26 -10 45 -2 18 -7 42 -13 52 -5 10 -12 45 -15 76 -3 32 -9 69 -14 83 -4 14 -8 32 -9 40 0 8 -3 35 -6 60 -4 25 -6 64 -6 88 1 23 -1 47 -5 53 -10 16 -4 453 7 549 5 47 12 105 15 130 3 25 6 56 8 70 1 14 5 32 9 40 11 29 25 113 20 125 -2 7 0 16 6 20 6 3 11 19 11 35 0 16 5 32 10 35 6 4 8 15 5 25 -3 10 -1 21 5 25 5 3 10 15 10 27 0 11 6 34 14 51 28 64 45 115 40 120 -3 3 2 17 12 31 9 15 18 34 18 44 2 17 6 26 63 148 18 39 33 78 33 87 0 9 5 19 11 22 6 4 24 37 41 74 17 36 39 75 48 86 25 30 110 171 110 182 0 6 11 22 25 37 14 15 25 31 25 35 0 4 18 27 40 51 22 24 40 49 40 56 0 8 11 21 25 30 14 9 25 22 25 30 0 7 9 18 20 24 11 6 20 17 20 24 0 7 18 27 40 45 22 17 40 36 40 41 0 12 147 160 159 160 5 0 27 20 49 45 22 25 44 45 49 45 5 0 32 22 59 50 27 27 52 50 56 50 4 0 19 11 34 25 15 14 31 25 36 25 13 0 141 91 151 107 4 7 16 13 26 13 11 0 21 6 24 13 3 6 22 20 43 31 101 49 140 70 155 82 8 8 22 14 31 14 8 0 32 11 52 25 39 27 133 68 178 79 14 3 48 16 75 28 26 12 59 23 71 24 13 2 35 10 48 19 14 9 29 13 34 10 5 -3 11 -1 15 5 3 5 17 10 30 10 13 0 27 5 30 11 4 6 13 8 21 5 7 -3 16 -2 18 3 3 4 19 8 36 9 17 0 37 6 45 12 7 6 17 10 21 9 5 -1 11 0 14 1 3 1 19 4 35 5 17 2 68 11 115 20 100 20 112 21 255 31 61 4 118 10 127 13 17 6 251 3 363 -4z"/>
 <path d="M4478 7053 c-17 -4 -18 -66 -18 -1119 0 -736 3 -1114 10 -1114 6 0 11 6 11 13 1 6 3 19 4 27 0 8 4 23 8 33 15 36 20 52 22 62 0 6 8 26 17 45 9 19 14 38 12 42 -3 5 2 18 10 30 9 12 16 32 16 43 0 12 4 25 8 31 5 5 19 45 31 89 13 44 26 87 29 95 2 8 6 25 8 38 1 13 8 29 13 36 6 7 41 103 78 212 l67 199 3 616 4 617 -23 6 c-26 7 -284 6 -310 -1z"/>
 <path d="M5359 7043 c-23 -30 -39 -62 -39 -81 0 -10 -4 -22 -10 -28 -5 -5 -12 -26 -14 -46 -3 -21 -12 -47 -20 -60 -8 -13 -19 -49 -26 -80 -6 -32 -16 -60 -21 -64 -5 -3 -7 -9 -4 -14 3 -5 2 -17 -3 -27 -23 -45 -53 -130 -57 -163 -1 -8 -9 -31 -17 -49 -9 -19 -14 -40 -11 -47 2 -7 0 -15 -6 -19 -6 -3 -11 -14 -11 -24 0 -10 -7 -31 -14 -47 -8 -15 -13 -31 -10 -36 3 -4 -2 -18 -9 -30 -8 -13 -29 -72 -47 -133 -17 -60 -36 -118 -41 -127 -5 -10 -9 -28 -9 -41 0 -13 -5 -28 -10 -33 -6 -6 -12 -22 -14 -35 -1 -13 -10 -40 -18 -59 -9 -19 -14 -38 -11 -43 2 -4 0 -13 -5 -20 -10 -13 -34 -82 -37 -107 -1 -15 -8 -33 -30 -85 -15 -34 -30 -96 -27 -108 1 -4 -4 -18 -13 -30 -8 -12 -15 -31 -15 -42 0 -12 -4 -25 -9 -31 -7 -8 -34 -95 -36 -119 -1 -5 -8 -26 -17 -44 -9 -19 -14 -40 -11 -47 2 -7 0 -15 -6 -19 -6 -3 -11 -16 -11 -28 -1 -12 -9 -40 -20 -62 -11 -22 -19 -50 -20 -62 0 -12 -4 -25 -10 -28 -5 -3 -10 -17 -10 -31 0 -14 -7 -36 -16 -49 -9 -13 -13 -29 -9 -34 3 -6 -1 -21 -9 -34 -9 -12 -18 -40 -20 -61 -3 -21 -9 -43 -14 -50 -18 -22 -75 -213 -69 -230 6 -14 26 -16 146 -16 l141 0 19 43 c10 23 24 62 31 87 7 25 16 54 20 65 13 30 33 97 35 115 1 8 9 31 17 49 9 19 14 40 11 47 -2 7 0 15 6 19 6 3 11 16 11 28 1 12 9 40 20 62 11 22 19 49 20 61 0 11 4 24 8 30 10 11 33 87 38 126 1 16 10 38 18 49 8 12 12 27 10 34 -3 7 -1 16 5 20 6 3 11 16 11 29 0 12 4 26 9 32 11 12 61 171 61 195 0 10 5 21 10 24 6 4 8 10 5 15 -3 5 6 34 19 65 14 30 29 73 32 95 4 22 11 43 15 46 5 3 7 9 4 14 -3 5 3 29 14 52 10 24 24 63 31 88 6 25 16 53 21 62 5 10 9 28 9 41 0 13 5 28 12 35 7 7 13 22 13 35 1 12 9 39 19 60 9 21 21 61 26 89 6 28 15 56 20 63 5 6 7 14 4 18 -3 3 1 16 9 29 16 25 47 125 52 170 2 15 11 38 20 51 8 13 12 27 9 30 -4 4 -2 12 3 19 11 14 45 113 47 137 1 9 7 25 13 36 6 11 14 38 18 60 4 22 10 44 13 50 3 5 7 19 8 31 1 12 12 42 24 68 11 26 18 51 15 56 -4 6 -64 10 -139 10 -115 0 -135 -2 -147 -17z"/>
 <path d="M6130 7053 c0 -5 0 -400 0 -880 0 -577 -3 -874 -10 -878 -5 -3 -10 1 -10 10 0 22 -39 138 -51 150 -5 5 -9 19 -9 32 0 13 -4 32 -10 43 -5 11 -15 29 -21 41 -5 11 -12 36 -15 55 -2 20 -10 45 -16 57 -7 12 -13 29 -14 38 -2 26 -55 182 -67 197 -5 7 -7 15 -3 19 3 3 -1 17 -9 30 -9 13 -18 40 -21 60 -2 21 -11 48 -20 60 -8 13 -13 27 -10 31 3 5 -2 21 -10 36 -7 16 -14 37 -14 47 0 10 -5 21 -10 24 -6 4 -9 12 -8 18 2 13 -65 232 -87 282 -7 17 -16 39 -20 50 -5 17 -9 15 -25 -20 -11 -22 -19 -49 -20 -60 0 -12 -5 -26 -10 -31 -6 -6 -12 -22 -14 -35 -1 -13 -6 -32 -9 -41 -16 -42 -20 -54 -22 -63 0 -5 -4 -17 -7 -25 -15 -38 -21 -57 -24 -78 -1 -13 -7 -29 -13 -36 -11 -13 -4 -53 12 -74 5 -7 7 -15 3 -19 -3 -3 1 -17 9 -30 9 -13 18 -36 20 -51 5 -40 30 -121 50 -159 9 -18 17 -43 19 -56 1 -12 5 -27 8 -32 3 -6 9 -28 13 -50 4 -22 12 -49 18 -60 6 -11 12 -30 14 -41 1 -12 10 -39 19 -60 10 -22 18 -43 19 -49 1 -5 4 -17 8 -25 3 -8 10 -37 17 -64 6 -27 18 -65 27 -85 9 -20 18 -47 19 -60 2 -13 8 -29 14 -35 5 -5 10 -20 10 -32 0 -13 5 -26 11 -29 6 -4 8 -12 6 -19 -3 -7 2 -28 11 -47 8 -18 16 -41 18 -49 3 -28 36 -135 48 -155 6 -11 11 -24 12 -30 0 -5 3 -17 6 -25 4 -8 12 -37 18 -65 7 -27 19 -60 27 -73 8 -13 16 -35 18 -50 5 -44 31 -124 59 -185 l26 -57 169 0 c128 0 171 3 180 13 8 10 11 378 11 1314 l0 1301 -22 6 c-33 8 -318 7 -318 -1z"/>
 <path d="M6858 7053 c-16 -4 -18 -19 -18 -132 0 -165 -3 -161 148 -161 l112 0 0 -1020 0 -1019 -127 -3 -128 -3 -3 -134 c-2 -90 1 -138 9 -147 9 -12 84 -14 423 -14 226 0 417 4 424 8 9 7 12 43 10 148 l-3 139 -127 3 -128 3 0 1019 0 1020 113 0 c152 0 149 -4 145 166 l-3 129 -415 1 c-228 1 -423 0 -432 -3z"/>
 </g>

</svg>